<svg xmlns="http://www.w3.org/2000/svg" viewBox="0 -0.5 16 16" shape-rendering="crispEdges">
<path stroke="#1c1b1a" d="M6 0h4M4 1h3M9 1h3M3 2h2M11 2h2M2 3h2M12 3h2M1 4h2M13 4h2M1 5h1M3 5h1M12 5h1M14 5h1M1 6h1M4 6h2M10 6h2M14 6h1M1 7h1M6 7h4M14 7h1M1 8h1M7 8h1M14 8h1M1 9h1M7 9h1M14 9h1M1 10h1M7 10h1M14 10h1M1 11h1M8 11h1M14 11h1M1 12h3M8 12h1M12 12h3M3 13h2M8 13h1M11 13h2M4 14h3M8 14h4M6 15h4" />
<path stroke="#f1ca57" d="M7 1h2M5 2h6M4 3h8M3 4h10M4 5h8M6 6h4" />
<path stroke="#d14d41" d="M2 5h1M2 6h2M2 7h4M2 8h5M2 9h5M2 10h5M2 11h6M4 12h4M5 13h3M7 14h1" />
<path stroke="#3aa99f" d="M13 5h1M12 6h2M10 7h4M8 8h6M8 9h6M8 10h6M9 11h5M9 12h3M9 13h2" />
</svg>
